{"accessors" : [{"bufferView" : 0, "byteOffset" : 0, "componentType" : 5123, "count" : 588, "type" : "SCALAR", "max" : [581], "min" : [0]}, {"bufferView" : 1, "byteOffset" : 0, "componentType" : 5126, "count" : 582, "type" : "VEC3", "max" : [0.11143720149993896, 0.26803821325302124, 0.27285340428352356], "min" : [-0.2655065059661865, -0.07407689094543457, -0.16574989259243011], "name" : "POSITION"}, {"bufferView" : 1, "byteOffset" : 12, "componentType" : 5126, "count" : 582, "type" : "VEC3", "max" : [0.9822070598602295, 0.9978640675544739, 0.9783478379249573], "min" : [-0.9728344678878784, -0.9951724410057068, -0.9652840495109558], "name" : "NORMAL"}, {"bufferView" : 1, "byteOffset" : 24, "componentType" : 5126, "count" : 582, "type" : "VEC2", "max" : [0.1040806993842125, 1.0831928253173828], "min" : [-0.10374460369348526, 0.9304977655410767], "name" : "TEXCOORD_0"}, {"bufferView" : 0, "byteOffset" : 1176, "componentType" : 5123, "count" : 12, "type" : "SCALAR", "max" : [11], "min" : [0]}, {"bufferView" : 2, "byteOffset" : 0, "componentType" : 5126, "count" : 12, "type" : "VEC3", "max" : [0.04137415066361427, 0.02449372038245201, -0.07107210159301758], "min" : [-0.0712638571858406, -0.019858060404658318, -0.13150380551815033], "name" : "POSITION"}, {"bufferView" : 2, "byteOffset" : 12, "componentType" : 5126, "count" : 12, "type" : "VEC3", "max" : [0.9575735330581665, -0.2272070050239563, -0.17730967700481415], "min" : [-0.7163127660751343, -0.2712228000164032, -0.6429176330566406], "name" : "NORMAL"}, {"bufferView" : 2, "byteOffset" : 24, "componentType" : 5126, "count" : 12, "type" : "VEC2", "max" : [0.06530626118183136, 1.0432116985321045], "min" : [-0.0478728786110878, 0.9809374809265137], "name" : "TEXCOORD_0"}, {"bufferView" : 0, "byteOffset" : 1200, "componentType" : 5123, "count" : 792, "type" : "SCALAR", "max" : [789], "min" : [0]}, {"bufferView" : 3, "byteOffset" : 0, "componentType" : 5126, "count" : 790, "type" : "VEC3", "max" : [0.207840695977211, 0.17558680474758148, 0.451583594083786], "min" : [-0.3247765898704529, -0.43115609884262085, -0.0839463472366333], "name" : "POSITION"}, {"bufferView" : 3, "byteOffset" : 12, "componentType" : 5126, "count" : 790, "type" : "VEC3", "max" : [0.9972228407859802, 0.9956972599029541, 0.9975211024284363], "min" : [-0.9969355463981628, -0.9922434687614441, -0.9878494739532471], "name" : "NORMAL"}, {"bufferView" : 3, "byteOffset" : 24, "componentType" : 5126, "count" : 790, "type" : "VEC2", "max" : [0.1014821007847786, 1.1170247793197632], "min" : [-0.10130719840526581, 0.9229031801223755], "name" : "TEXCOORD_0"}, {"bufferView" : 0, "byteOffset" : 2784, "componentType" : 5123, "count" : 48, "type" : "SCALAR", "max" : [47], "min" : [0]}, {"bufferView" : 4, "byteOffset" : 0, "componentType" : 5126, "count" : 48, "type" : "VEC3", "max" : [0.05200612172484398, -0.07020757347345352, 0.08796101808547974], "min" : [-0.19420139491558075, -0.37586718797683716, -0.0455658994615078], "name" : "POSITION"}, {"bufferView" : 4, "byteOffset" : 12, "componentType" : 5126, "count" : 48, "type" : "VEC3", "max" : [0.5814661979675293, 0.34076377749443054, -0.4456014633178711], "min" : [-0.22045975923538208, -0.8465245366096497, -0.9791277647018433], "name" : "NORMAL"}, {"bufferView" : 4, "byteOffset" : 24, "componentType" : 5126, "count" : 48, "type" : "VEC2", "max" : [0.061991430819034576, 1.0567785501480103], "min" : [-0.05472714081406593, 0.9549146890640259], "name" : "TEXCOORD_0"}, {"bufferView" : 0, "byteOffset" : 2880, "componentType" : 5123, "count" : 84, "type" : "SCALAR", "max" : [83], "min" : [0]}, {"bufferView" : 5, "byteOffset" : 0, "componentType" : 5126, "count" : 84, "type" : "VEC3", "max" : [0.09148547053337097, -0.3979969918727875, 0.10389590263366699], "min" : [-0.24346449971199036, -0.43124300241470337, -0.006258606910705566], "name" : "POSITION"}, {"bufferView" : 5, "byteOffset" : 12, "componentType" : 5126, "count" : 84, "type" : "VEC3", "max" : [0.9952667355537415, 0.9693027138710022, 0.20420928299427032], "min" : [-0.94292813539505, -0.9990320801734924, -0.9349567890167236], "name" : "NORMAL"}, {"bufferView" : 5, "byteOffset" : 24, "componentType" : 5126, "count" : 84, "type" : "VEC2", "max" : [0.0745922178030014, 1.06656014919281], "min" : [-0.07413840293884277, 0.977319598197937], "name" : "TEXCOORD_0"}, {"bufferView" : 0, "byteOffset" : 3048, "componentType" : 5123, "count" : 96, "type" : "SCALAR", "max" : [95], "min" : [0]}, {"bufferView" : 6, "byteOffset" : 0, "componentType" : 5126, "count" : 96, "type" : "VEC3", "max" : [0.21091130375862122, -0.17901569604873657, 0.1530303955078125], "min" : [0.09134209156036377, -0.2799505889415741, -0.20665280520915985], "name" : "POSITION"}, {"bufferView" : 6, "byteOffset" : 12, "componentType" : 5126, "count" : 96, "type" : "VEC3", "max" : [0.7947273254394531, 0.9290356636047363, 0.9814655780792236], "min" : [-0.7733529806137085, -0.7999065518379211, -0.8288149833679199], "name" : "NORMAL"}, {"bufferView" : 6, "byteOffset" : 24, "componentType" : 5126, "count" : 96, "type" : "VEC2", "max" : [0.08484161645174026, 1.0536067485809326], "min" : [-0.08456779271364212, 0.9792221188545227], "name" : "TEXCOORD_0"}, {"bufferView" : 0, "byteOffset" : 3240, "componentType" : 5123, "count" : 84, "type" : "SCALAR", "max" : [80], "min" : [0]}, {"bufferView" : 7, "byteOffset" : 0, "componentType" : 5126, "count" : 81, "type" : "VEC3", "max" : [-0.08826135098934174, 0.13829480111598969, 0.07222706079483032], "min" : [-0.14233900606632233, 0.04328757897019386, -0.031276170164346695], "name" : "POSITION"}, {"bufferView" : 7, "byteOffset" : 12, "componentType" : 5126, "count" : 81, "type" : "VEC3", "max" : [0.9851770997047424, 0.9704937934875488, 0.8794736266136169], "min" : [-0.8998774886131287, -0.9669315218925476, -0.7452504634857178], "name" : "NORMAL"}, {"bufferView" : 7, "byteOffset" : 24, "componentType" : 5126, "count" : 81, "type" : "VEC2", "max" : [0.08980382978916168, 1.060670018196106], "min" : [-0.08941453695297241, 0.9602305889129639], "name" : "TEXCOORD_0"}, {"bufferView" : 0, "byteOffset" : 3408, "componentType" : 5123, "count" : 27, "type" : "SCALAR", "max" : [26], "min" : [0]}, {"bufferView" : 8, "byteOffset" : 0, "componentType" : 5126, "count" : 27, "type" : "VEC3", "max" : [-0.1066925972700119, 0.1357875019311905, 0.04222964867949486], "min" : [-0.13255420327186584, 0.051116470247507095, -0.016516389325261116], "name" : "POSITION"}, {"bufferView" : 8, "byteOffset" : 12, "componentType" : 5126, "count" : 27, "type" : "VEC3", "max" : [-0.8640336990356445, 0.20585408806800842, -0.37031862139701843], "min" : [-0.9058129191398621, 0.18814264237880707, -0.46336254477500916], "name" : "NORMAL"}, {"bufferView" : 8, "byteOffset" : 24, "componentType" : 5126, "count" : 27, "type" : "VEC2", "max" : [-0.0790521502494812, 1.0299491882324219], "min" : [-0.08818881958723068, 1.023656964302063], "name" : "TEXCOORD_0"}, {"bufferView" : 0, "byteOffset" : 3464, "componentType" : 5123, "count" : 30, "type" : "SCALAR", "max" : [29], "min" : [0]}, {"bufferView" : 9, "byteOffset" : 0, "componentType" : 5126, "count" : 30, "type" : "VEC3", "max" : [-0.1066925972700119, 0.13362979888916016, 0.029134269803762436], "min" : [-0.12684430181980133, 0.06428608298301697, -0.009445548057556152], "name" : "POSITION"}, {"bufferView" : 9, "byteOffset" : 12, "componentType" : 5126, "count" : 30, "type" : "VEC3", "max" : [-0.8683135509490967, 0.2746751308441162, -0.2952516973018646], "min" : [-0.9269143342971802, 0.14710134267807007, -0.46289584040641785], "name" : "NORMAL"}, {"bufferView" : 9, "byteOffset" : 24, "componentType" : 5126, "count" : 30, "type" : "VEC2", "max" : [-0.07977428287267685, 1.0308756828308105], "min" : [-0.08737392723560333, 1.0163096189498901], "name" : "TEXCOORD_0"}, {"bufferView" : 0, "byteOffset" : 3524, "componentType" : 5123, "count" : 30, "type" : "SCALAR", "max" : [29], "min" : [0]}, {"bufferView" : 10, "byteOffset" : 0, "componentType" : 5126, "count" : 30, "type" : "VEC3", "max" : [0.028556300327181816, 0.13054320216178894, 0.06747453659772873], "min" : [0.016903800889849663, 0.06049085035920143, 0.02495718002319336], "name" : "POSITION"}, {"bufferView" : 10, "byteOffset" : 12, "componentType" : 5126, "count" : 30, "type" : "VEC3", "max" : [0.9958380460739136, 0.2197786569595337, 0.13870950043201447], "min" : [0.9656426906585693, 0.09097103774547577, -0.03291615471243858], "name" : "NORMAL"}, {"bufferView" : 10, "byteOffset" : 24, "componentType" : 5126, "count" : 30, "type" : "VEC2", "max" : [0.08631925284862518, 1.0450749397277832], "min" : [0.07599232345819473, 1.011231780052185], "name" : "TEXCOORD_0"}, {"bufferView" : 0, "byteOffset" : 3584, "componentType" : 5123, "count" : 84, "type" : "SCALAR", "max" : [81], "min" : [0]}, {"bufferView" : 11, "byteOffset" : 0, "componentType" : 5126, "count" : 82, "type" : "VEC3", "max" : [0.03225243091583252, 0.1349879950284958, 0.10358119755983353], "min" : [-0.003233640920370817, 0.04056471958756447, 0.004437028896063566], "name" : "POSITION"}, {"bufferView" : 11, "byteOffset" : 12, "componentType" : 5126, "count" : 82, "type" : "VEC3", "max" : [0.9930579662322998, 0.980979859828949, 0.991252601146698], "min" : [-0.9886224269866943, -0.976283848285675, -0.8912822008132935], "name" : "NORMAL"}, {"bufferView" : 11, "byteOffset" : 24, "componentType" : 5126, "count" : 82, "type" : "VEC2", "max" : [0.09113725274801254, 1.0349459648132324], "min" : [-0.09026089310646057, 0.9162186980247498], "name" : "TEXCOORD_0"}, {"bufferView" : 0, "byteOffset" : 3752, "componentType" : 5123, "count" : 27, "type" : "SCALAR", "max" : [26], "min" : [0]}, {"bufferView" : 12, "byteOffset" : 0, "componentType" : 5126, "count" : 27, "type" : "VEC3", "max" : [0.030974509194493294, 0.13259899616241455, 0.0813949704170227], "min" : [0.016903800889849663, 0.047207240015268326, 0.01860160008072853], "name" : "POSITION"}, {"bufferView" : 12, "byteOffset" : 12, "componentType" : 5126, "count" : 27, "type" : "VEC3", "max" : [0.9909495711326599, 0.15004006028175354, 0.066858671605587], "min" : [0.9864211678504944, 0.132269486784935, -0.035123422741889954], "name" : "NORMAL"}, {"bufferView" : 12, "byteOffset" : 24, "componentType" : 5126, "count" : 27, "type" : "VEC2", "max" : [0.09048102051019669, 1.032744288444519], "min" : [0.08004249632358551, 1.0120718479156494], "name" : "TEXCOORD_0"}], "asset" : {"generator" : "Aspose.3D 22.1", "version" : "2.0"}, "buffers" : [{"uri" : "data:application/octet-stream;base64,", "byteLength" : 64724}], "bufferViews" : [{"buffer" : 0, "byteOffset" : 0, "byteLength" : 3808, "target" : 34963}, {"buffer" : 0, "byteOffset" : 3812, "byteLength" : 18816, "byteStride" : 32, "target" : 34962}, {"buffer" : 0, "byteOffset" : 22632, "byteLength" : 384, "byteStride" : 32, "target" : 34962}, {"buffer" : 0, "byteOffset" : 23020, "byteLength" : 25344, "byteStride" : 32, "target" : 34962}, {"buffer" : 0, "byteOffset" : 48368, "byteLength" : 1536, "byteStride" : 32, "target" : 34962}, {"buffer" : 0, "byteOffset" : 49908, "byteLength" : 2688, "byteStride" : 32, "target" : 34962}, {"buffer" : 0, "byteOffset" : 52600, "byteLength" : 3072, "byteStride" : 32, "target" : 34962}, {"buffer" : 0, "byteOffset" : 55676, "byteLength" : 2688, "byteStride" : 32, "target" : 34962}, {"buffer" : 0, "byteOffset" : 58368, "byteLength" : 864, "byteStride" : 32, "target" : 34962}, {"buffer" : 0, "byteOffset" : 59236, "byteLength" : 960, "byteStride" : 32, "target" : 34962}, {"buffer" : 0, "byteOffset" : 60200, "byteLength" : 960, "byteStride" : 32, "target" : 34962}, {"buffer" : 0, "byteOffset" : 61164, "byteLength" : 2688, "byteStride" : 32, "target" : 34962}, {"buffer" : 0, "byteOffset" : 63856, "byteLength" : 864, "byteStride" : 32, "target" : 34962}], "materials" : [{"name" : "mat21", "pbrMetallicRoughness" : {"baseColorFactor" : [1, 1, 1, 1], "metallicFactor" : 0, "roughnessFactor" : 1}, "emissiveFactor" : [0, 0, 0], "alphaMode" : "OPAQUE", "doubleSided" : false}, {"name" : "mat23", "pbrMetallicRoughness" : {"baseColorFactor" : [0.01, 0.01, 0.01, 1], "metallicFactor" : 0, "roughnessFactor" : 1}, "emissiveFactor" : [0, 0, 0], "alphaMode" : "OPAQUE", "doubleSided" : false}, {"name" : "mat13", "pbrMetallicRoughness" : {"baseColorFactor" : [1, 0.33, 0, 1], "metallicFactor" : 0, "roughnessFactor" : 1}, "emissiveFactor" : [0, 0, 0], "alphaMode" : "OPAQUE", "doubleSided" : false}, {"name" : "mat18", "pbrMetallicRoughness" : {"baseColorFactor" : [1, 0.61, 0.25, 1], "metallicFactor" : 0, "roughnessFactor" : 1}, "emissiveFactor" : [0, 0, 0], "alphaMode" : "OPAQUE", "doubleSided" : false}, {"name" : "mat21", "pbrMetallicRoughness" : {"baseColorFactor" : [1, 1, 1, 1], "metallicFactor" : 0, "roughnessFactor" : 1}, "emissiveFactor" : [0, 0, 0], "alphaMode" : "OPAQUE", "doubleSided" : false}, {"name" : "mat21", "pbrMetallicRoughness" : {"baseColorFactor" : [1, 1, 1, 1], "metallicFactor" : 0, "roughnessFactor" : 1}, "emissiveFactor" : [0, 0, 0], "alphaMode" : "OPAQUE", "doubleSided" : false}, {"name" : "mat21", "pbrMetallicRoughness" : {"baseColorFactor" : [1, 1, 1, 1], "metallicFactor" : 0, "roughnessFactor" : 1}, "emissiveFactor" : [0, 0, 0], "alphaMode" : "OPAQUE", "doubleSided" : false}, {"name" : "mat11", "pbrMetallicRoughness" : {"baseColorFactor" : [0, 0.31, 0.25, 1], "metallicFactor" : 0, "roughnessFactor" : 1}, "emissiveFactor" : [0, 0, 0], "alphaMode" : "OPAQUE", "doubleSided" : false}, {"name" : "mat23", "pbrMetallicRoughness" : {"baseColorFactor" : [0.01, 0.01, 0.01, 1], "metallicFactor" : 0, "roughnessFactor" : 1}, "emissiveFactor" : [0, 0, 0], "alphaMode" : "OPAQUE", "doubleSided" : false}, {"name" : "mat23", "pbrMetallicRoughness" : {"baseColorFactor" : [0.01, 0.01, 0.01, 1], "metallicFactor" : 0, "roughnessFactor" : 1}, "emissiveFactor" : [0, 0, 0], "alphaMode" : "OPAQUE", "doubleSided" : false}, {"name" : "mat21", "pbrMetallicRoughness" : {"baseColorFactor" : [1, 1, 1, 1], "metallicFactor" : 0, "roughnessFactor" : 1}, "emissiveFactor" : [0, 0, 0], "alphaMode" : "OPAQUE", "doubleSided" : false}, {"name" : "mat11", "pbrMetallicRoughness" : {"baseColorFactor" : [0, 0.31, 0.25, 1], "metallicFactor" : 0, "roughnessFactor" : 1}, "emissiveFactor" : [0, 0, 0], "alphaMode" : "OPAQUE", "doubleSided" : false}], "meshes" : [{"primitives" : [{"attributes" : {"POSITION" : 1, "NORMAL" : 2, "TEXCOORD_0" : 3}, "indices" : 0, "material" : 0, "mode" : 4}, {"attributes" : {"POSITION" : 5, "NORMAL" : 6, "TEXCOORD_0" : 7}, "indices" : 4, "material" : 1, "mode" : 4}]}, {"primitives" : [{"attributes" : {"POSITION" : 9, "NORMAL" : 10, "TEXCOORD_0" : 11}, "indices" : 8, "material" : 2, "mode" : 4}, {"attributes" : {"POSITION" : 13, "NORMAL" : 14, "TEXCOORD_0" : 15}, "indices" : 12, "material" : 3, "mode" : 4}, {"attributes" : {"POSITION" : 17, "NORMAL" : 18, "TEXCOORD_0" : 19}, "indices" : 16, "material" : 4, "mode" : 4}]}, {"primitives" : [{"attributes" : {"POSITION" : 21, "NORMAL" : 22, "TEXCOORD_0" : 23}, "indices" : 20, "material" : 5, "mode" : 4}]}, {"primitives" : [{"attributes" : {"POSITION" : 25, "NORMAL" : 26, "TEXCOORD_0" : 27}, "indices" : 24, "material" : 6, "mode" : 4}, {"attributes" : {"POSITION" : 29, "NORMAL" : 30, "TEXCOORD_0" : 31}, "indices" : 28, "material" : 7, "mode" : 4}, {"attributes" : {"POSITION" : 33, "NORMAL" : 34, "TEXCOORD_0" : 35}, "indices" : 32, "material" : 8, "mode" : 4}]}, {"primitives" : [{"attributes" : {"POSITION" : 37, "NORMAL" : 38, "TEXCOORD_0" : 39}, "indices" : 36, "material" : 9, "mode" : 4}, {"attributes" : {"POSITION" : 41, "NORMAL" : 42, "TEXCOORD_0" : 43}, "indices" : 40, "material" : 10, "mode" : 4}, {"attributes" : {"POSITION" : 45, "NORMAL" : 46, "TEXCOORD_0" : 47}, "indices" : 44, "material" : 11, "mode" : 4}]}], "nodes" : [{"mesh" : 0, "name" : "group2089373109"}, {"mesh" : 1, "name" : "group1518070955"}, {"mesh" : 2, "name" : "group1868352797"}, {"mesh" : 3, "name" : "group1156846795"}, {"mesh" : 4, "name" : "group705226761"}], "scene" : 0, "scenes" : [{"nodes" : [0, 1, 2, 3, 4]}]}